<?xml version="1.0" encoding="UTF-8" standalone="no"?>
<!DOCTYPE svg PUBLIC "-//W3C//DTD SVG 1.1//EN" "http://www.w3.org/Graphics/SVG/1.1/DTD/svg11.dtd">
<svg width="100%" height="100%" viewBox="0 0 512 512" version="1.1" xmlns="http://www.w3.org/2000/svg" xmlns:xlink="http://www.w3.org/1999/xlink" xml:space="preserve" xmlns:serif="http://www.serif.com/" style="fill-rule:evenodd;clip-rule:evenodd;stroke-linejoin:round;stroke-miterlimit:2;">
    <g transform="matrix(0.474074,0,0,0.474074,0,0)">
        <path d="M1080,162L1080,918C1080,1007.41 1007.41,1080 918,1080L162,1080C72.59,1080 -0,1007.41 -0,918L-0,162C-0,72.59 72.59,-0 162,-0L918,-0C1007.41,-0 1080,72.59 1080,162ZM1016,162C1016,107.912 972.088,64 918,64L162,64C107.912,64 64,107.912 64,162L64,918C64,972.088 107.912,1016 162,1016L918,1016C972.088,1016 1016,972.088 1016,918L1016,162ZM546.009,960L546.009,893.424C598.091,852.738 643.734,815.883 682.938,782.859C722.142,749.836 752.618,719.453 774.367,691.713C796.115,663.973 806.989,638.215 806.989,614.437C806.989,589.603 799.12,570.714 783.381,557.768C767.642,544.823 745.75,538.35 717.706,538.35C695.958,538.35 676.07,543.502 658.042,553.805C640.014,564.109 623.273,576.129 607.82,589.867L540,527.254C568.044,500.306 597.089,480.228 627.136,467.018C657.183,453.809 693.097,447.204 734.876,447.204C772.65,447.204 805.987,453.809 834.89,467.018C863.792,480.228 886.399,498.853 902.71,522.895C919.021,546.936 927.177,575.073 927.177,607.304C927.177,635.837 917.877,664.634 899.276,693.695C880.676,722.756 856.066,751.949 825.446,781.274C794.827,810.6 762.062,839.529 727.15,868.061C742.603,866.476 759.486,865.023 777.8,863.702C796.115,862.381 812.14,861.721 825.876,861.721L955.507,861.721L955.507,960L546.009,960ZM719.468,398.221L719.468,112.948L794.571,112.948L825.783,214.018L836.512,253.396L838.463,253.396L849.192,214.018L880.404,112.948L955.507,112.948L955.507,398.221L895.034,398.221L895.034,309.838C895.034,301.963 895.359,292.118 896.009,280.305C896.66,268.491 897.472,256.168 898.448,243.333C899.423,230.499 900.48,218.248 901.618,206.58C902.756,194.913 903.65,185.287 904.3,177.703L902.837,177.703L878.453,253.834L854.069,322.527L818.955,322.527L794.083,253.834L771.162,177.703L769.699,177.703C770.349,185.287 771.244,194.913 772.382,206.58C773.519,218.248 774.576,230.499 775.551,243.333C776.527,256.168 777.34,268.491 777.99,280.305C778.64,292.118 778.965,301.963 778.965,309.838L778.965,398.221L719.468,398.221ZM516.591,409.596L516.591,252.959L452.217,318.589L413.69,288.399L543.901,166.765L545.852,166.765L676.064,288.399L637.537,318.589L573.163,252.959L573.163,409.596L516.591,409.596ZM219.098,399.829C206.989,397.002 195.774,392.528 185.454,386.407C166.271,375.031 151.316,358.332 140.587,336.309C129.858,314.287 124.493,286.941 124.493,254.272C124.493,222.477 129.858,195.715 140.587,173.984C151.316,152.253 166.271,135.772 185.454,124.542C204.636,113.312 226.907,107.697 252.266,107.697C277.626,107.697 299.897,113.312 319.079,124.542C338.261,135.772 353.217,152.253 363.946,173.984C374.675,195.715 380.04,222.477 380.04,254.272C380.04,286.941 374.675,314.287 363.946,336.309C353.217,358.332 338.261,375.031 319.079,386.407C311.177,391.093 302.752,394.814 293.802,397.57C296.702,402.806 300.332,407.179 304.692,410.69C311.032,415.795 318.348,419.368 326.638,421.41C334.929,423.452 343.463,424.473 352.242,424.473C357.118,424.473 361.751,423.889 366.141,422.723C370.53,421.556 374.35,420.243 377.601,418.785L390.281,466.914C385.079,469.539 378.577,471.726 370.774,473.477C362.971,475.227 353.867,476.102 343.463,476.102C311.926,476.102 285.51,468.664 264.215,453.787C243.95,439.631 228.911,421.645 219.098,399.829ZM252.266,350.967C263.321,350.967 272.912,347.466 281.04,340.466C289.168,333.465 295.426,322.892 299.816,308.745C304.205,294.598 306.399,276.44 306.399,254.272C306.399,234.437 304.205,217.81 299.816,204.393C295.426,190.975 289.168,180.766 281.04,173.765C272.912,166.765 263.321,163.264 252.266,163.264C241.212,163.264 231.621,166.765 223.493,173.765C215.365,180.766 209.106,190.975 204.717,204.393C200.328,217.81 198.133,234.437 198.133,254.272C198.133,276.44 200.328,294.598 204.717,308.745C209.106,322.892 215.365,333.465 223.493,340.466C231.621,347.466 241.212,350.967 252.266,350.967Z" style="fill:url(#_Linear1);"/>
    </g>
    <defs>
        <linearGradient id="_Linear1" x1="0" y1="0" x2="1" y2="0" gradientUnits="userSpaceOnUse" gradientTransform="matrix(1080,-1080,1080,1080,0,1080)"><stop offset="0" style="stop-color:rgb(255,255,45);stop-opacity:1"/><stop offset="0.43" style="stop-color:rgb(231,255,69);stop-opacity:1"/><stop offset="0.8" style="stop-color:rgb(150,255,150);stop-opacity:1"/><stop offset="1" style="stop-color:rgb(45,255,255);stop-opacity:1"/></linearGradient>
    </defs>
</svg>
